MatahahX-Regular-H4.ufo
<glyph name="five" format="2">
	<advance width="400"/>
	<unicode hex="0035"/>
	<outline>
		<contour>
			<point x="50" y="0" type="line"/>
			<point x="350" y="0" type="line"/>
			<point x="350" y="500" type="line"/>
			<point x="150" y="500" type="line"/>
			<point x="150" y="800" type="line"/>
			<point x="350" y="800" type="line"/>
			<point x="350" y="900" type="line"/>
			<point x="50" y="900" type="line"/>
			<point x="50" y="400" type="line"/>
			<point x="250" y="400" type="line"/>
			<point x="250" y="100" type="line"/>
			<point x="50" y="100" type="line"/>
		</contour>
	</outline>
</glyph>
<glyph name="question" format="2">
	<advance width="400"/>
	<unicode hex="003F"/>
	<outline>
		<contour>
			<point x="50" y="900" type="line"/>
			<point x="250" y="900" type="line"/>
			<point x="250" y="600" type="line"/>
			<point x="50" y="600" type="line"/>
			<point x="50" y="200" type="line"/>
			<point x="150" y="200" type="line"/>
			<point x="150" y="500" type="line"/>
			<point x="350" y="500" type="line"/>
			<point x="350" y="1000" type="line"/>
			<point x="50" y="1000" type="line"/>
		</contour>
		<contour>
			<point x="50" y="0" type="line"/>
			<point x="150" y="0" type="line"/>
			<point x="150" y="100" type="line"/>
			<point x="50" y="100" type="line"/>
		</contour>
	</outline>
</glyph>
<glyph name="B" format="2">
	<advance width="400"/>
	<unicode hex="0042"/>
	<outline>
		<contour>
			<point x="50" y="0" type="line"/>
			<point x="350" y="0" type="line"/>
			<point x="350" y="366" type="line"/>
			<point x="267" y="449" type="line"/>
			<point x="350" y="533" type="line"/>
			<point x="350" y="900" type="line"/>
			<point x="50" y="900" type="line"/>
		</contour>
		<contour>
			<point x="150" y="500" type="line"/>
			<point x="150" y="800" type="line"/>
			<point x="250" y="800" type="line"/>
			<point x="250" y="575" type="line"/>
			<point x="175" y="500" type="line"/>
		</contour>
		<contour>
			<point x="250" y="324" type="line"/>
			<point x="250" y="100" type="line"/>
			<point x="150" y="100" type="line"/>
			<point x="150" y="400" type="line"/>
			<point x="174" y="400" type="line"/>
		</contour>
	</outline>
</glyph>
<glyph name="H" format="2">
	<advance width="400"/>
	<unicode hex="0048"/>
	<outline>
		<contour>
			<point x="50" y="0" type="line"/>
			<point x="150" y="0" type="line"/>
			<point x="150" y="399" type="line"/>
			<point x="250" y="400" type="line"/>
			<point x="250" y="1" type="line"/>
			<point x="350" y="1" type="line"/>
			<point x="350" y="900" type="line"/>
			<point x="250" y="900" type="line"/>
			<point x="250" y="500" type="line"/>
			<point x="150" y="499" type="line"/>
			<point x="150" y="899" type="line"/>
			<point x="50" y="899" type="line"/>
		</contour>
	</outline>
</glyph>
<glyph name="r" format="2">
	<advance width="400"/>
	<unicode hex="0072"/>
	<anchor x="200" y="700" name="top"/>
	<anchor x="200" y="0" name="bottom"/>
	<outline>
		<contour>
			<point x="50" y="0" type="line"/>
			<point x="150" y="0" type="line"/>
			<point x="150" y="600" type="line"/>
			<point x="250" y="600" type="line"/>
			<point x="250" y="100" type="line"/>
			<point x="350" y="100" type="line"/>
			<point x="350" y="700" type="line"/>
			<point x="50" y="700" type="line"/>
		</contour>
	</outline>
</glyph>
<glyph name="x" format="2">
	<advance width="400"/>
	<unicode hex="0078"/>
	<outline>
		<contour>
			<point x="50" y="0" type="line"/>
			<point x="150" y="0" type="line"/>
			<point x="150" y="262" type="line"/>
			<point x="200" y="322" type="line"/>
			<point x="250" y="262" type="line"/>
			<point x="250" y="0" type="line"/>
			<point x="350" y="0" type="line"/>
			<point x="350" y="300" type="line"/>
			<point x="266" y="400" type="line"/>
			<point x="350" y="500" type="line"/>
			<point x="350" y="800" type="line"/>
			<point x="250" y="800" type="line"/>
			<point x="250" y="539" type="line"/>
			<point x="200" y="479" type="line"/>
			<point x="150" y="539" type="line"/>
			<point x="150" y="800" type="line"/>
			<point x="50" y="800" type="line"/>
			<point x="50" y="500" type="line"/>
			<point x="134" y="400" type="line"/>
			<point x="50" y="300" type="line"/>
		</contour>
	</outline>
</glyph>
<glyph name="ae" format="2">
	<advance width="600"/>
	<unicode hex="00E6"/>
	<outline>
		<contour>
			<point x="50" y="0" type="line"/>
			<point x="550" y="0" type="line"/>
			<point x="550" y="100" type="line"/>
			<point x="350" y="100" type="line"/>
			<point x="350" y="200" type="line"/>
			<point x="550" y="200" type="line"/>
			<point x="550" y="900" type="line"/>
			<point x="50" y="900" type="line"/>
			<point x="50" y="800" type="line"/>
			<point x="250" y="800" type="line"/>
			<point x="250" y="700" type="line"/>
			<point x="50" y="700" type="line"/>
		</contour>
		<contour>
			<point x="150" y="100" type="line"/>
			<point x="150" y="600" type="line"/>
			<point x="250" y="600" type="line"/>
			<point x="250" y="100" type="line"/>
		</contour>
		<contour>
			<point x="350" y="300" type="line"/>
			<point x="350" y="800" type="line"/>
			<point x="450" y="800" type="line"/>
			<point x="450" y="300" type="line"/>
		</contour>
	</outline>
</glyph>
<glyph name="Dcroat" format="2">
	<advance width="400"/>
	<unicode hex="0110"/>
	<outline>
		<contour>
			<point x="0" y="460" type="line"/>
			<point x="0" y="445" type="line"/>
			<point x="200" y="445" type="line"/>
			<point x="200" y="460" type="line"/>
		</contour>
		<component base="D"/>
	</outline>
</glyph>
<glyph name="Hbar" format="2">
	<advance width="400"/>
	<unicode hex="0126"/>
	<outline>
		<contour>
			<point x="50" y="0" type="line"/>
			<point x="150" y="0" type="line"/>
			<point x="150" y="299" type="line"/>
			<point x="250" y="300" type="line"/>
			<point x="250" y="1" type="line"/>
			<point x="350" y="1" type="line"/>
			<point x="350" y="900" type="line"/>
			<point x="250" y="900" type="line"/>
			<point x="250" y="600" type="line"/>
			<point x="150" y="600" type="line"/>
			<point x="150" y="899" type="line"/>
			<point x="50" y="899" type="line"/>
		</contour>
		<contour>
			<point x="150" y="399" type="line"/>
			<point x="150" y="500" type="line"/>
			<point x="250" y="500" type="line"/>
			<point x="250" y="400" type="line"/>
		</contour>
	</outline>
</glyph>
<glyph name="comma-ar" format="2">
	<advance width="200"/>
	<unicode hex="060C"/>
	<outline>
		<contour>
			<point x="50" y="700" type="line"/>
			<point x="50" y="100" type="line"/>
			<point x="150" y="100" type="line"/>
			<point x="150" y="700" type="line"/>
		</contour>
	</outline>
</glyph>
<glyph name="dal-ar" format="2">
	<advance width="400"/>
	<unicode hex="062F"/>
	<anchor x="200" y="800" name="top"/>
	<outline>
		<contour>
			<point x="50" y="100" type="line"/>
			<point x="350" y="100" type="line"/>
			<point x="350" y="800" type="line"/>
			<point x="50" y="800" type="line"/>
			<point x="50" y="700" type="line"/>
			<point x="250" y="700" type="line"/>
			<point x="250" y="200" type="line"/>
			<point x="50" y="200" type="line"/>
		</contour>
	</outline>
</glyph>
<glyph name="kaf-ar" format="2">
	<advance width="600"/>
	<unicode hex="0643"/>
	<outline>
		<contour>
			<point x="50" y="100" type="line"/>
			<point x="550" y="100" type="line"/>
			<point x="550" y="900" type="line"/>
			<point x="450" y="900" type="line"/>
			<point x="450" y="200" type="line"/>
			<point x="150" y="200" type="line"/>
			<point x="150" y="700" type="line"/>
			<point x="50" y="700" type="line"/>
		</contour>
		<contour>
			<point x="250" y="600" type="line"/>
			<point x="350" y="600" type="line"/>
			<point x="350" y="645" type="line"/>
			<point x="323" y="665" type="line"/>
			<point x="350" y="665" type="line"/>
			<point x="350" y="700" type="line"/>
			<point x="250" y="700" type="line"/>
			<point x="250" y="655" type="line"/>
			<point x="277" y="635" type="line"/>
			<point x="250" y="635" type="line"/>
		</contour>
	</outline>
</glyph>
<glyph name="four-ar" format="2">
	<advance width="400"/>
	<unicode hex="0664"/>
	<outline>
		<contour>
			<point x="50" y="100" type="line"/>
			<point x="350" y="100" type="line"/>
			<point x="350" y="200" type="line"/>
			<point x="150" y="200" type="line"/>
			<point x="150" y="500" type="line"/>
			<point x="350" y="500" type="line"/>
			<point x="350" y="600" type="line"/>
			<point x="150" y="600" type="line"/>
			<point x="150" y="900" type="line"/>
			<point x="350" y="900" type="line"/>
			<point x="350" y="1000" type="line"/>
			<point x="50" y="1000" type="line"/>
		</contour>
	</outline>
</glyph>
<glyph name="five-ar" format="2">
	<advance width="400"/>
	<unicode hex="0665"/>
	<outline>
		<contour>
			<point x="50" y="1000" type="line"/>
			<point x="50" y="100" type="line"/>
			<point x="350" y="100" type="line"/>
			<point x="350" y="1000" type="line"/>
		</contour>
		<contour>
			<point x="150" y="900" type="line"/>
			<point x="250" y="900" type="line"/>
			<point x="250" y="200" type="line"/>
			<point x="150" y="200" type="line"/>
		</contour>
	</outline>
</glyph>
<glyph name="eight-ar" format="2">
	<advance width="400"/>
	<unicode hex="0668"/>
	<outline>
		<contour>
			<point x="350" y="900" type="line"/>
			<point x="250" y="1000" type="line"/>
			<point x="150" y="1000" type="line"/>
			<point x="50" y="900" type="line"/>
			<point x="50" y="100" type="line"/>
			<point x="150" y="100" type="line"/>
			<point x="150" y="858" type="line"/>
			<point x="200" y="909" type="line"/>
			<point x="250" y="858" type="line"/>
			<point x="250" y="100" type="line"/>
			<point x="350" y="100" type="line"/>
		</contour>
	</outline>
</glyph>
<glyph name="decimalseparator-ar" format="2">
	<advance width="200"/>
	<unicode hex="066B"/>
	<outline>
		<contour>
			<point x="50" y="600" type="line"/>
			<point x="50" y="100" type="line"/>
			<point x="150" y="100" type="line"/>
			<point x="150" y="600" type="line"/>
		</contour>
	</outline>
</glyph>
<glyph name="six-persian" format="2">
	<advance width="400"/>
	<unicode hex="06F6"/>
	<outline>
		<contour>
			<point x="50" y="300" type="line"/>
			<point x="250" y="300" type="line"/>
			<point x="250" y="0" type="line"/>
			<point x="350" y="0" type="line"/>
			<point x="350" y="1000" type="line"/>
			<point x="250" y="1000" type="line"/>
			<point x="250" y="400" type="line"/>
			<point x="150" y="400" type="line"/>
			<point x="150" y="1000" type="line"/>
			<point x="50" y="1000" type="line"/>
		</contour>
	</outline>
</glyph>
<glyph name="bullet" format="2">
	<advance width="200"/>
	<unicode hex="2022"/>
	<outline>
		<contour>
			<point x="50" y="700" type="line"/>
			<point x="50" y="100" type="line"/>
			<point x="150" y="100" type="line"/>
			<point x="150" y="700" type="line"/>
		</contour>
	</outline>
</glyph>
<glyph name="hehgoal-ar.init" format="2">
	<advance width="200"/>
	<unicode hex="FBA8"/>
	<anchor x="100" y="100" name="bottom"/>
	<outline>
		<contour>
			<point x="-50" y="100" type="line"/>
			<point x="150" y="100" type="line"/>
			<point x="150" y="800" type="line"/>
			<point x="50" y="800" type="line"/>
			<point x="50" y="200" type="line"/>
			<point x="-50" y="200" type="line"/>
		</contour>
		<contour>
			<point x="84" y="30" type="line"/>
			<point x="95" y="73" type="line"/>
			<point x="106" y="70" type="line"/>
			<point x="95" y="27" type="line"/>
		</contour>
	</outline>
</glyph>
<glyph name="alef-ar.fina" format="2">
	<advance width="200"/>
	<unicode hex="FE8E"/>
	<anchor x="100" y="1000" name="top"/>
	<anchor x="100" y="100" name="bottom"/>
	<outline>
		<contour>
			<point x="50" y="100" type="line"/>
			<point x="250" y="100" type="line"/>
			<point x="250" y="200" type="line"/>
			<point x="150" y="200" type="line"/>
			<point x="150" y="1000" type="line"/>
			<point x="50" y="1000" type="line"/>
		</contour>
	</outline>
</glyph>
<glyph name="beh-ar.fina" format="2">
	<advance width="600"/>
	<unicode hex="FE90"/>
	<outline>
		<contour>
			<point x="50" y="100" type="line"/>
			<point x="650" y="100" type="line"/>
			<point x="650" y="200" type="line"/>
			<point x="550" y="200" type="line"/>
			<point x="550" y="800" type="line"/>
			<point x="450" y="800" type="line"/>
			<point x="450" y="200" type="line"/>
			<point x="150" y="200" type="line"/>
			<point x="150" y="800" type="line"/>
			<point x="50" y="800" type="line"/>
		</contour>
		<contour>
			<point x="250" y="0" type="line"/>
			<point x="250" y="-100" type="line"/>
			<point x="350" y="-100" type="line"/>
			<point x="350" y="0" type="line"/>
		</contour>
	</outline>
</glyph>
<glyph name="kaf-ar.fina" format="2">
	<advance width="600"/>
	<unicode hex="FEDA"/>
	<outline>
		<contour>
			<point x="50" y="100" type="line"/>
			<point x="650" y="100" type="line"/>
			<point x="650" y="200" type="line"/>
			<point x="550" y="200" type="line"/>
			<point x="550" y="1000" type="line"/>
			<point x="450" y="1000" type="line"/>
			<point x="450" y="200" type="line"/>
			<point x="150" y="200" type="line"/>
			<point x="150" y="800" type="line"/>
			<point x="50" y="800" type="line"/>
		</contour>
		<contour>
			<point x="250" y="700" type="line"/>
			<point x="350" y="700" type="line"/>
			<point x="350" y="745" type="line"/>
			<point x="323" y="765" type="line"/>
			<point x="350" y="765" type="line"/>
			<point x="350" y="800" type="line"/>
			<point x="250" y="800" type="line"/>
			<point x="250" y="755" type="line"/>
			<point x="277" y="735" type="line"/>
			<point x="250" y="735" type="line"/>
		</contour>
	</outline>
</glyph>
<glyph name="kaf-ar.init" format="2">
	<advance width="400"/>
	<unicode hex="FEDB"/>
	<anchor x="200" y="1000" name="top"/>
	<outline>
		<contour>
			<point x="-50" y="100" type="line"/>
			<point x="350" y="100" type="line"/>
			<point x="350" y="600" type="line"/>
			<point x="150" y="600" type="line"/>
			<point x="150" y="900" type="line"/>
			<point x="350" y="900" type="line"/>
			<point x="350" y="1000" type="line"/>
			<point x="50" y="1000" type="line"/>
			<point x="50" y="500" type="line"/>
			<point x="250" y="500" type="line"/>
			<point x="250" y="200" type="line"/>
			<point x="-50" y="200" type="line"/>
		</contour>
	</outline>
</glyph>
<glyph name="alefMaksura-ar.fina" format="2">
	<advance width="400"/>
	<unicode hex="FEF0"/>
	<anchor x="99" y="700" name="top"/>
	<outline>
		<contour>
			<point x="50" y="-100" type="line"/>
			<point x="350" y="-100" type="line"/>
			<point x="350" y="100" type="line"/>
			<point x="450" y="100" type="line"/>
			<point x="450" y="200" type="line"/>
			<point x="250" y="200" type="line"/>
			<point x="250" y="0" type="line"/>
			<point x="150" y="0" type="line"/>
			<point x="150" y="700" type="line"/>
			<point x="50" y="700" type="line"/>
		</contour>
	</outline>
</glyph>
<glyph name="lam_alef-ar" format="2">
	<advance width="400"/>
	<unicode hex="FEFB"/>
	<anchor x="100" y="1000" name="top"/>
	<anchor x="200" y="100" name="bottom"/>
	<outline>
		<contour>
			<point x="50" y="100" type="line"/>
			<point x="350" y="100" type="line"/>
			<point x="350" y="300" type="line"/>
			<point x="266" y="399" type="line"/>
			<point x="350" y="500" type="line"/>
			<point x="350" y="1000" type="line"/>
			<point x="250" y="1000" type="line"/>
			<point x="250" y="536" type="line"/>
			<point x="200" y="477" type="line"/>
			<point x="150" y="536" type="line"/>
			<point x="150" y="1000" type="line"/>
			<point x="50" y="1000" type="line"/>
			<point x="50" y="500" type="line"/>
			<point x="134" y="399" type="line"/>
			<point x="50" y="300" type="line"/>
		</contour>
		<contour>
			<point x="150" y="200" type="line"/>
			<point x="150" y="261" type="line"/>
			<point x="200" y="321" type="line"/>
			<point x="250" y="261" type="line"/>
			<point x="250" y="200" type="line"/>
		</contour>
	</outline>
</glyph>
